<html>
<head>
<meta charset="UTF-8">
<meta name="viewport" content="width=device-width, initial-scale=1.0"/>

<style>
.comment
{
    padding-left: 20px;
    margin-top: 4px;
    margin-right: 4px;
    margin-bottom: 4px;
    border: 2px #000 solid;
}
.submission
{
    border: 4px #00f solid;
    padding-left: 20px;
}
.hidden
{
    display: none;
}
</style>
</head>
<body><div class="submission" id="t3_6hemc9">
    <p class="userinfo">
        <a href="https://www.reddit.com/u/TheMrMcGibblets">TheMrMcGibblets</a>
        <span class="score"> | 20 points</span>
        <span class="timestamp"> | Jun 15 2017 12:13:51</span>
    </p>
    <strong>[TV] The Handmaids Tale S01E10 Night 1080p HULU WEBRip DD5.1 H264 [2.13GB]</strong>
    <p><p>Add mega</p>
<p>.nz/#!xDQR1RIL</p>
<p>!viPsPQiUQHcRFLoykhj6Wpo7Hd6HBtmTTTketyH2Jlg</p>
<pre><code>Video
ID                                       : 1
Format                                   : AVC
Format/Info                              : Advanced Video Codec
Format profile                           : High@L4
Format settings, CABAC                   : Yes
Format settings, ReFrames                : 4 frames
Codec ID                                 : V_MPEG4/ISO/AVC
Duration                                 : 1 h 0 min
Bit rate                                 : 4 686 kb/s
Width                                    : 1 920 pixels
Height                                   : 1 080 pixels
Display aspect ratio                     : 16:9
Frame rate mode                          : Constant
Frame rate                               : 23.976 (24000/1001) FPS
Color space                              : YUV
Chroma subsampling                       : 4:2:0
Bit depth                                : 8 bits
Scan type                                : Progressive
Bits/(Pixel*Frame)                       : 0.094
Stream size                              : 1.97 GiB (92%)
Language                                 : English
Default                                  : Yes
Forced                                   : No

Audio
ID                                       : 3
Format                                   : E-AC-3
Format/Info                              : Enhanced Audio Coding 3
Format settings, Endianness              : Big
Codec ID                                 : A_EAC3
Duration                                 : 1 h 0 min
Bit rate mode                            : Constant
Bit rate                                 : 384 kb/s
Channel(s)                               : 6 channels
Channel positions                        : Front: L C R, Side: L R, LFE
Sampling rate                            : 48.0 kHz
Frame rate                               : 187.500 FPS (256 spf)
Compression mode                         : Lossy
Delay relative to video                  : -83 ms
Stream size                              : 165 MiB (8%)
Language                                 : English
Service kind                             : Complete Main
Default                                  : Yes
Forced                                   : No

Text
ID                                       : 2
Format                                   : UTF-8
Codec ID                                 : S_TEXT/UTF8
Codec ID/Info                            : UTF-8 Plain Text
Duration                                 : 58 min 26 s
Bit rate                                 : 37 b/s
Count of elements                        : 594
Stream size                              : 16.1 KiB (0%)
Language                                 : English
Default                                  : No
Forced                                   : No
</code></pre></p>
    <p class="toolbar">
        <a href="https://www.reddit.com/r/megalinks/comments/6hemc9">permalink</a>
    </p>
</div>
<div class="comment" id="t1_diyfa4l">
    <p class="userinfo">
        <a
        class="toggle_hide_button"
        href="javascript:void(0)"
        onclick="toggle_collapse(this.parentElement.parentElement)">[-]
        </a>
        <a href="https://www.reddit.com/u/roro_mush">roro_mush</a>
        <span class="score"> | 3 points</span>
        <span class="timestamp"> | Jun 15 2017 20:51:13</span>
    </p>
    <div class="collapsible">
        <p>Thank you! Will there be a full S01 link in the future?</p>
        <p class="toolbar">
            <a href="https://www.reddit.com/r/megalinks/comments/6hemc9/_/diyfa4l">permalink</a>
        </p>
        
    </div>
</div>

<div class="comment" id="t1_diyn5wd">
    <p class="userinfo">
        <a
        class="toggle_hide_button"
        href="javascript:void(0)"
        onclick="toggle_collapse(this.parentElement.parentElement)">[-]
        </a>
        <a href="https://www.reddit.com/u/OmarNajdi">OmarNajdi</a>
        <span class="score"> | 3 points</span>
        <span class="timestamp"> | Jun 15 2017 23:31:33</span>
    </p>
    <div class="collapsible">
        <p>can you please give me the link of episode 9?</p>
        <p class="toolbar">
            <a href="https://www.reddit.com/r/megalinks/comments/6hemc9/_/diyn5wd">permalink</a>
        </p>
        
    </div>
</div>

<div class="comment" id="t1_dixo8ja">
    <p class="userinfo">
        <a
        class="toggle_hide_button"
        href="javascript:void(0)"
        onclick="toggle_collapse(this.parentElement.parentElement)">[-]
        </a>
        <a href="https://www.reddit.com/u/SubZorro">SubZorro</a>
        <span class="score"> | 1 points</span>
        <span class="timestamp"> | Jun 15 2017 12:18:08</span>
    </p>
    <div class="collapsible">
        <h5>Subtitles for this episode:</h5>
<hr>
<blockquote>
<ul>
<li>
<p><strong>The.Handmaids.Tale.S01E10.Night.HULU.WEBRip.AAC2.0.H.264-BTW</strong> - <code>1 CD</code> - <a href="http://dl.opensubtitles.org/en/download/vrf-0e7fa2cd/sub/7011734">Download Subtitle</a></p>
</li>
<li>
<p><strong>The.Handmaids.Tale.S01E10.Night.HULU.WEBRip.x264-RBB</strong> - <code>1 CD</code> - <a href="http://dl.opensubtitles.org/en/download/vrf-f7bd3a33/sub/7011834">Download Subtitle</a></p>
</li>
</ul>
</blockquote>
<hr>
<p>^This ^list ^of ^subtitles ^are ^taken ^from <a href="http://www.opensubtitles.org">^opensubtitles.org</a> ^| ^For ^feedback ^or ^suggestions ^contact <a href="http://www.reddit.com/message/compose/?to=indigo6alpha">^/u/indigo6alpha</a></p>
        <p class="toolbar">
            <a href="https://www.reddit.com/r/megalinks/comments/6hemc9/_/dixo8ja">permalink</a>
        </p>
        
    </div>
</div>
</body>

<script>
function toggle_collapse(comment_div)
{
    var button = comment_div.getElementsByClassName("toggle_hide_button")[0];
    var collapsible = comment_div.getElementsByClassName("collapsible")[0];
    if (collapsible.classList.contains("hidden"))
    {
        collapsible.classList.remove("hidden");
        button.innerText = "[-]";
    }
    else
    {
        collapsible.classList.add("hidden");
        button.innerText = "[+]";
    }
}
</script>
</html>
